<svg id="Group_65" data-name="Group 65" xmlns="http://www.w3.org/2000/svg" xmlns:xlink="http://www.w3.org/1999/xlink" width="52.565" height="60.67" viewBox="0 0 52.565 60.67">
  <defs>
    <clipPath id="clip-path">
      <rect id="Rectangle_84" data-name="Rectangle 84" width="52.565" height="60.67" fill="#ac7c7e"/>
    </clipPath>
  </defs>
  <g id="Group_64" data-name="Group 64" clip-path="url(#clip-path)">
    <path id="Path_23586" data-name="Path 23586" d="M91.007,30.736A15.368,15.368,0,1,0,75.6,15.408,15.412,15.412,0,0,0,91.007,30.736m0-27.767A12.359,12.359,0,1,1,78.649,15.328,12.364,12.364,0,0,1,91.007,2.969" transform="translate(-64.765)" fill="#ac7c7e"/>
    <path id="Path_23587" data-name="Path 23587" d="M26.242,240.24a25.532,25.532,0,0,0-4.975.481A26.223,26.223,0,0,0,0,266.482H2.969a23.28,23.28,0,0,1,18.859-22.872,27.367,27.367,0,0,1,4.414-.4,23.29,23.29,0,0,1,23.273,23.273h3.05A26.322,26.322,0,0,0,26.243,240.24Z" transform="translate(0 -205.812)" fill="#ac7c7e"/>
  </g>
</svg>
