<svg id="Group_21" data-name="Group 21" xmlns="http://www.w3.org/2000/svg" xmlns:xlink="http://www.w3.org/1999/xlink" width="121.795" height="91.414" viewBox="0 0 121.795 91.414">
  <defs>
    <clipPath id="clip-path">
      <rect id="Rectangle_40" data-name="Rectangle 40" width="121.795" height="91.414" fill="#ae7d7f"/>
    </clipPath>
  </defs>
  <g id="Group_20" data-name="Group 20" clip-path="url(#clip-path)">
    <path id="Path_23555" data-name="Path 23555" d="M120.9,185.736a6.056,6.056,0,0,0-8.279-2l-.99.628a5.325,5.325,0,0,0-8.375-4.092l-22,15.092a72.355,72.355,0,0,1-12.39.019c-5.006-.59-13.3-4.606-16.634-6.318a18.232,18.232,0,0,0-5.767-1.866c-10.392-1.447-21.906,4.358-27.863,7.955C14.381,197.707.849,205.13.715,205.206a1.427,1.427,0,0,0-.666.856,1.394,1.394,0,0,0,.133,1.066l13.493,22.686a1.4,1.4,0,0,0,1.2.685,1.2,1.2,0,0,0,.571-.133l16.424-7.461c8.146-3.863,20.231,1.96,23.752,3.845a19.568,19.568,0,0,0,3.73,1.6c11.058,3.293,20.365-4.491,20.688-4.777l39.357-29.9a5.984,5.984,0,0,0,1.505-7.938Zm-16.044-3.16a2.557,2.557,0,0,1,3.52.552,2.619,2.619,0,0,1,.476,1.979,2.435,2.435,0,0,1-1.123,1.694l-1.18.8-1.447.914c-.076.057-.133.133-.209.19l-14.617,9.84a9.38,9.38,0,0,0-4.568-2.835Zm12.866,8.888L78.29,221.4c-.076.076-8.565,7.137-18.156,4.282a17.212,17.212,0,0,1-3.217-1.39c-3.806-2.036-16.919-8.317-26.226-3.921L15.428,227.3,3.3,206.938c3.5-1.923,13.17-7.271,16.729-9.4,5.633-3.407,16.52-8.888,26.035-7.575a15.34,15.34,0,0,1,4.891,1.6c4.3,2.189,12.314,5.976,17.567,6.6a72.822,72.822,0,0,0,13.532-.057,7.2,7.2,0,0,1,6.09,2.3,4.116,4.116,0,0,1,1.142,3.331,4.017,4.017,0,0,1-4.073,3.274H55.812a1.39,1.39,0,1,0,0,2.779H85.237a6.772,6.772,0,0,0,6.833-5.709,6.443,6.443,0,0,0-.4-3.16l16.444-11.058,5.976-3.788a3.254,3.254,0,0,1,3.636,5.386Z" transform="translate(0 -139.086)" fill="#ae7d7f"/>
    <path id="Path_23556" data-name="Path 23556" d="M221.225,45.7a5.24,5.24,0,0,0,7.423,0l17.7-17.7c6.357-6.357,6.7-16.634.781-22.915a16.137,16.137,0,0,0-22.192-1.256,16.137,16.137,0,0,0-22.191,1.256c-5.919,6.281-5.576,16.577.781,22.915ZM204.781,6.988a13.251,13.251,0,0,1,9.535-4.206h.209a13.261,13.261,0,0,1,9.44,3.921,1.464,1.464,0,0,0,1.979,0,13.51,13.51,0,0,1,9.65-3.921,13.283,13.283,0,0,1,9.535,4.206c4.891,5.2,4.568,13.741-.723,19.032l-17.7,17.7a2.481,2.481,0,0,1-3.483,0l-17.7-17.7c-5.31-5.29-5.633-13.836-.742-19.032Z" transform="translate(-153.993 0)" fill="#ae7d7f"/>
  </g>
</svg>
