<svg id="Group_25" data-name="Group 25" xmlns="http://www.w3.org/2000/svg" xmlns:xlink="http://www.w3.org/1999/xlink" width="95.506" height="89.727" viewBox="0 0 95.506 89.727">
  <defs>
    <clipPath id="clip-path">
      <rect id="Rectangle_42" data-name="Rectangle 42" width="95.506" height="89.727" fill="#ae7d7f"/>
    </clipPath>
  </defs>
  <g id="Group_24" data-name="Group 24" clip-path="url(#clip-path)">
    <path id="Path_23559" data-name="Path 23559" d="M20.259,279.023H17.365a7.235,7.235,0,1,0-8.682,0H5.788A5.787,5.787,0,0,0,0,284.812V290.6H26.047v-5.788a5.787,5.787,0,0,0-5.788-5.788ZM8.682,273.235A4.342,4.342,0,1,1,9.954,276.3,4.338,4.338,0,0,1,8.682,273.235Zm14.471,14.471H2.894v-2.894a2.9,2.9,0,0,1,2.894-2.894H20.259a2.9,2.9,0,0,1,2.894,2.894Z" transform="translate(0 -211.011)" fill="#ae7d7f"/>
    <path id="Path_23560" data-name="Path 23560" d="M356.259,279.023h-2.894a7.235,7.235,0,1,0-8.682,0h-2.894A5.787,5.787,0,0,0,336,284.812V290.6h26.047v-5.788a5.787,5.787,0,0,0-5.788-5.788Zm-11.576-5.788a4.342,4.342,0,1,1,1.272,3.069,4.338,4.338,0,0,1-1.272-3.069m14.471,14.471H338.894v-2.894a2.9,2.9,0,0,1,2.894-2.894h14.471a2.9,2.9,0,0,1,2.894,2.894Z" transform="translate(-266.541 -211.011)" fill="#ae7d7f"/>
    <path id="Path_23561" data-name="Path 23561" d="M194.046,18.812a5.787,5.787,0,0,0-5.788-5.788h-2.894a7.235,7.235,0,1,0-8.682,0h-2.894A5.787,5.787,0,0,0,168,18.812V24.6h26.047ZM176.682,7.235a4.342,4.342,0,1,1,1.272,3.069,4.338,4.338,0,0,1-1.272-3.069m14.471,14.471H170.893V18.812a2.9,2.9,0,0,1,2.894-2.894h14.471a2.9,2.9,0,0,1,2.894,2.894Z" transform="translate(-133.27)" fill="#ae7d7f"/>
    <path id="Path_23562" data-name="Path 23562" d="M37.894,103.4A37.755,37.755,0,0,1,56.706,70.822l-1.447-2.5A40.663,40.663,0,0,0,35,103.4v.159h2.894Z" transform="translate(-27.765 -54.196)" fill="#ae7d7f"/>
    <path id="Path_23563" data-name="Path 23563" d="M153.7,400.452a37.622,37.622,0,0,1-18.7-4.964l-1.447,2.5h0a40.52,40.52,0,0,0,40.518-.131l-1.447-2.5A37.623,37.623,0,0,1,153.7,400.452Z" transform="translate(-105.949 -313.628)" fill="#ae7d7f"/>
    <path id="Path_23564" data-name="Path 23564" d="M340.812,103.229h2.894a40.69,40.69,0,0,0-20.259-35.121L322,70.611a37.771,37.771,0,0,1,18.812,32.617Z" transform="translate(-255.435 -54.028)" fill="#ae7d7f"/>
    <path id="Path_23565" data-name="Path 23565" d="M160.11,203.674c1.36,1.288,2.547,2.4,3.155,3.111l1.1,1.259,1.1-1.259c.608-.709,1.794-1.823,3.155-3.111,5.223-4.919,13.109-12.328,13.109-18.551a10.129,10.129,0,0,0-17.365-7.091A10.129,10.129,0,0,0,147,185.123c0,6.223,7.886,13.632,13.111,18.551Zm-2.981-25.787a7.237,7.237,0,0,1,6.034,3.241l1.2,1.809,1.2-1.809a7.235,7.235,0,0,1,13.27,3.994c0,4.964-7.626,12.156-12.2,16.439-.868.824-1.65,1.548-2.271,2.171-.623-.623-1.447-1.346-2.271-2.171-4.573-4.283-12.2-11.475-12.2-16.439a7.234,7.234,0,0,1,7.235-7.235Z" transform="translate(-116.611 -138.817)" fill="#ae7d7f"/>
  </g>
</svg>
