<svg id="Group_90" data-name="Group 90" xmlns="http://www.w3.org/2000/svg" xmlns:xlink="http://www.w3.org/1999/xlink" width="81.02" height="81.017" viewBox="0 0 81.02 81.017">
  <defs>
    <clipPath id="clip-path">
      <rect id="Rectangle_91" data-name="Rectangle 91" width="81.02" height="81.017" fill="#ae7d7f"/>
    </clipPath>
  </defs>
  <g id="Group_89" data-name="Group 89" clip-path="url(#clip-path)">
    <path id="Path_23592" data-name="Path 23592" d="M11.911,81.017c-3.644,0-6.652-1.008-8.775-3.13C-2.743,72.009-.239,58.956,9.67,43.821a1.351,1.351,0,1,1,2.259,1.48C2.9,59.088.2,71.13,5.046,75.976c7.277,7.274,29.664-2.818,48.89-22.044S83.256,12.319,75.98,5.044C71.425.489,60.56,2.618,47.621,10.6A1.35,1.35,0,1,1,46.2,8.3C60.477-.5,72.323-2.432,77.89,3.132c8.6,8.6-1.086,31.751-22.044,52.709C40.06,71.627,23.029,81.015,11.912,81.015" transform="translate(0 0)" fill="#ae7d7f" fill-rule="evenodd"/>
    <path id="Path_23593" data-name="Path 23593" d="M69.148,81.039C58.03,81.041,41,71.651,25.214,55.865,4.256,34.907-5.428,11.753,3.169,3.156S34.919,4.243,55.877,25.2c2,2,8.095,8.218,10,10.391a1.351,1.351,0,1,1-2.034,1.778c-1.859-2.126-7.891-8.279-9.872-10.259C34.741,7.886,12.352-2.209,5.078,5.067S7.9,34.73,27.122,53.956,68.737,83.276,76.012,76c4.508-4.508,2.451-15.259-5.368-28.057a1.351,1.351,0,1,1,2.305-1.409c8.633,14.129,10.492,25.857,4.973,31.375-2.122,2.122-5.133,3.13-8.775,3.13" transform="translate(-0.034 -0.023)" fill="#ae7d7f" fill-rule="evenodd"/>
    <path id="Path_23594" data-name="Path 23594" d="M392.088,197.415h-8.1a1.35,1.35,0,1,1,0-2.7h6.753v-6.753a1.351,1.351,0,0,1,2.7,0v8.1a1.351,1.351,0,0,1-1.35,1.35" transform="translate(-327.265 -159.607)" fill="#ae7d7f" fill-rule="evenodd"/>
    <path id="Path_23595" data-name="Path 23595" d="M18.752,309.415a1.351,1.351,0,0,1-1.35-1.35v-6.753H10.648a1.35,1.35,0,0,1,0-2.7h8.1a1.351,1.351,0,0,1,1.351,1.35v8.1a1.351,1.351,0,0,1-1.351,1.35" transform="translate(-7.953 -255.401)" fill="#ae7d7f" fill-rule="evenodd"/>
  </g>
</svg>
