<svg id="Group_31" data-name="Group 31" xmlns="http://www.w3.org/2000/svg" xmlns:xlink="http://www.w3.org/1999/xlink" width="84" height="84" viewBox="0 0 84 84">
  <defs>
    <clipPath id="clip-path">
      <rect id="Rectangle_43" data-name="Rectangle 43" width="84" height="84" fill="none" stroke="#ae7d7f" stroke-width="3"/>
    </clipPath>
  </defs>
  <g id="Group_28" data-name="Group 28">
    <g id="Group_27" data-name="Group 27" clip-path="url(#clip-path)">
      <line id="Line_2" data-name="Line 2" y2="11" transform="translate(43 1)" fill="none" stroke="#ae7d7f" stroke-linecap="round" stroke-linejoin="round" stroke-width="3"/>
    </g>
  </g>
  <line id="Line_3" data-name="Line 3" x1="7.368" y2="7.368" transform="translate(64.168 13.129)" fill="none" stroke="#ae7d7f" stroke-linecap="round" stroke-linejoin="round" stroke-width="3"/>
  <line id="Line_4" data-name="Line 4" x2="7.368" y2="7.368" transform="translate(14.432 13.129)" fill="none" stroke="#ae7d7f" stroke-linecap="round" stroke-linejoin="round" stroke-width="3"/>
  <line id="Line_5" data-name="Line 5" x2="1.994" y2="4.813" transform="translate(29.525 9.19)" fill="none" stroke="#ae7d7f" stroke-linecap="round" stroke-linejoin="round" stroke-width="3"/>
  <line id="Line_6" data-name="Line 6" x2="4.813" y2="1.994" transform="translate(10.492 28.223)" fill="none" stroke="#ae7d7f" stroke-linecap="round" stroke-linejoin="round" stroke-width="3"/>
  <line id="Line_7" data-name="Line 7" x1="1.994" y2="4.813" transform="translate(54.448 9.19)" fill="none" stroke="#ae7d7f" stroke-linecap="round" stroke-linejoin="round" stroke-width="3"/>
  <line id="Line_8" data-name="Line 8" x1="4.813" y2="1.994" transform="translate(70.663 28.223)" fill="none" stroke="#ae7d7f" stroke-linecap="round" stroke-linejoin="round" stroke-width="3"/>
  <g id="Group_30" data-name="Group 30">
    <g id="Group_29" data-name="Group 29" clip-path="url(#clip-path)">
      <path id="Path_23566" data-name="Path 23566" d="M17.089,29.328a22.152,22.152,0,0,1,41.45,0" transform="translate(5.17 4.538)" fill="none" stroke="#ae7d7f" stroke-linecap="round" stroke-linejoin="round" stroke-width="3"/>
      <path id="Path_23567" data-name="Path 23567" d="M1,59.156A155.49,155.49,0,0,1,81.758,28.873" transform="translate(0.303 8.735)" fill="none" stroke="#ae7d7f" stroke-linecap="round" stroke-linejoin="round" stroke-width="3"/>
      <path id="Path_23568" data-name="Path 23568" d="M12.574,71.269C31.7,54.18,52.438,41.724,78.256,35.67" transform="translate(3.804 10.792)" fill="none" stroke="#ae7d7f" stroke-linecap="round" stroke-linejoin="round" stroke-width="3"/>
      <path id="Path_23569" data-name="Path 23569" d="M35.574,68.576A156.592,156.592,0,0,1,71.3,44.569" transform="translate(10.763 13.484)" fill="none" stroke="#ae7d7f" stroke-linecap="round" stroke-linejoin="round" stroke-width="3"/>
      <path id="Path_23570" data-name="Path 23570" d="M1,28.673a155.728,155.728,0,0,1,41.681,7.992" transform="translate(0.303 8.675)" fill="none" stroke="#ae7d7f" stroke-linecap="round" stroke-linejoin="round" stroke-width="3"/>
    </g>
  </g>
</svg>
