<?xml version="1.0" encoding="utf-8"?>
<!-- Generator: Adobe Illustrator 26.2.1, SVG Export Plug-In . SVG Version: 6.00 Build 0)  -->
<svg version="1.1" id="Layer_1" xmlns="http://www.w3.org/2000/svg" xmlns:xlink="http://www.w3.org/1999/xlink" x="0px" y="0px"
	 viewBox="0 0 103.1 67" style="enable-background:new 0 0 103.1 67;" xml:space="preserve">
<style type="text/css">
	.st0{fill:#AC7C7E;stroke:#AB7C7E;}
	.st1{fill:none;stroke:#AB7C7E;stroke-width:3;}
</style>
<g id="Group_68">
	<path id="Path_23582" class="st0" d="M100.4,66.6c0.6,0,1.1-0.5,1.1-1.1v-11c0-2.3-0.7-4.6-2-6.5c-4.4-6.3-11.6-10.1-19.3-10.1
		c-3.7,0-7.4,0.9-10.7,2.6c-4.9-4.1-11.2-6.3-17.6-6.2c-6.4-0.1-12.7,2.1-17.6,6.2c-3.3-1.7-7-2.6-10.7-2.6
		c-7.7,0-14.9,3.8-19.3,10.1c-1.3,1.9-2.1,4.2-2,6.5v11c0,0.6,0.5,1.1,1.1,1.1L100.4,66.6z M97.6,49.2c1.1,1.5,1.6,3.3,1.6,5.2v9.9
		h-22V53.1c0-2.2-0.6-4.4-1.8-6.2c-1.2-1.8-2.6-3.4-4.1-4.9c2.8-1.3,5.8-2,8.9-1.9C87.1,40,93.7,43.4,97.6,49.2L97.6,49.2z
		 M4.4,54.4c0-1.9,0.6-3.7,1.7-5.2C10,43.4,16.5,40,23.5,40c3.1,0,6.1,0.6,8.9,1.9c-1.5,1.5-2.9,3.2-4.1,4.9c-1.2,1.8-1.9,4-1.8,6.2
		v11.2h-22L4.4,54.4z M66.1,64.3H28.7V53.1c0-1.8,0.5-3.5,1.5-5c7.8-12,23.8-15.3,35.7-7.5c3,2,5.6,4.5,7.5,7.5c1,1.5,1.5,3.2,1.5,5
		v11.2L66.1,64.3z"/>
	<path id="Path_23583" class="st1" d="M65.1,15.9c0-7.3-5.9-13.3-13.2-13.3S38.6,8.5,38.6,15.8s5.9,13.3,13.2,13.3
		c3.5,0,6.9-1.4,9.4-3.9C63.7,22.7,65.1,19.4,65.1,15.9L65.1,15.9z"/>
	<path id="Path_23584" class="st1" d="M34.7,23.9c0-6.2-5-11.2-11.2-11.2c-6.2,0-11.2,5-11.2,11.2s5,11.2,11.2,11.2
		c3,0,5.8-1.2,7.9-3.3C33.6,29.8,34.7,26.9,34.7,23.9z"/>
	<path id="Path_23585" class="st1" d="M91.4,23.9c0-6.2-5-11.2-11.2-11.2c-6.2,0-11.2,5-11.2,11.2c0,6.2,5,11.2,11.2,11.2
		c3,0,5.8-1.2,7.9-3.3C90.2,29.8,91.4,26.9,91.4,23.9z"/>
</g>
</svg>
