<svg id="Group_67" data-name="Group 67" xmlns="http://www.w3.org/2000/svg" xmlns:xlink="http://www.w3.org/1999/xlink" width="56.377" height="70.669" viewBox="0 0 56.377 70.669">
  <defs>
    <clipPath id="clip-path">
      <rect id="Rectangle_85" data-name="Rectangle 85" width="56.377" height="70.669" fill="#ac7c7e"/>
    </clipPath>
  </defs>
  <g id="Group_66" data-name="Group 66" clip-path="url(#clip-path)">
    <path id="Path_23588" data-name="Path 23588" d="M0,176.257V181a1.413,1.413,0,0,0,1.413,1.413H54.963A1.413,1.413,0,0,0,56.376,181v-4.743a1.413,1.413,0,0,0-1.413-1.413H53.041a4.193,4.193,0,0,0,.209-.866l3.1-25.554a4.2,4.2,0,0,0-4.168-4.7h-1.32a7.406,7.406,0,0,0-7.385-7.06H12.9a7.406,7.406,0,0,0-7.385,7.06H4.2a4.2,4.2,0,0,0-4.167,4.7l3.1,25.552a4.166,4.166,0,0,0,.209.867H1.413A1.414,1.414,0,0,0,0,176.257Zm12.9-36.769H43.474a4.579,4.579,0,0,1,4.558,4.234H8.344A4.579,4.579,0,0,1,12.9,139.488ZM5.934,173.637l-3.1-25.554a1.369,1.369,0,0,1,1.36-1.536H6.861c.012,0,.022.007.034.007s.022-.006.034-.007H49.446c.012,0,.022.007.034.007s.022-.006.034-.007h2.664a1.371,1.371,0,0,1,1.361,1.536l-3.1,25.552a1.371,1.371,0,0,1-1.361,1.206H7.294a1.37,1.37,0,0,1-1.36-1.206Zm-3.107,4.033H53.551v1.916H2.828Z" transform="translate(0 -111.744)" fill="#ac7c7e"/>
    <path id="Path_23589" data-name="Path 23589" d="M91.624,11.483A11.483,11.483,0,1,0,103.107,0,11.5,11.5,0,0,0,91.624,11.483m20.14,0a8.657,8.657,0,1,1-8.657-8.657,8.667,8.667,0,0,1,8.657,8.657" transform="translate(-74.918)" fill="#ac7c7e"/>
  </g>
</svg>
