<svg id="Group_23" data-name="Group 23" xmlns="http://www.w3.org/2000/svg" xmlns:xlink="http://www.w3.org/1999/xlink" width="88.35" height="86.595" viewBox="0 0 88.35 86.595">
  <defs>
    <clipPath id="clip-path">
      <rect id="Rectangle_41" data-name="Rectangle 41" width="88.35" height="86.595" fill="#ae7d7f"/>
    </clipPath>
  </defs>
  <g id="Group_22" data-name="Group 22" clip-path="url(#clip-path)">
    <path id="Path_23557" data-name="Path 23557" d="M32.173,157.175a1.427,1.427,0,0,1-1-.4L21.1,146.93a7.732,7.732,0,0,1-1.742,2.573,8.273,8.273,0,0,1-11.487,0,7.807,7.807,0,0,1-.019-11.241,7.971,7.971,0,0,1,2.634-1.7L.414,126.721a1.358,1.358,0,0,1,0-1.953l11.517-11.254a1.431,1.431,0,0,1,1.7-.222,1.369,1.369,0,0,1,.665,1.549,4.771,4.771,0,0,0,1.263,4.642,4.914,4.914,0,0,0,3.459,1.4l.005,0a4.91,4.91,0,0,0,3.454-1.395,4.7,4.7,0,0,0,0-6.76,4.946,4.946,0,0,0-4.744-1.235,1.446,1.446,0,0,1-1.591-.645,1.356,1.356,0,0,1,.225-1.667L27.89,97.924a1.437,1.437,0,0,1,2,0l10.082,9.849a7.727,7.727,0,0,1,1.753-2.6,8.271,8.271,0,0,1,11.486,0c.007.005.012.013.019.019a7.807,7.807,0,0,1,0,11.222,7.988,7.988,0,0,1-2.66,1.713l10.08,9.847a1.358,1.358,0,0,1,0,1.953L49.131,141.181a1.43,1.43,0,0,1-1.706.219,1.364,1.364,0,0,1-.659-1.551,4.679,4.679,0,0,0-1.266-4.637,4.983,4.983,0,0,0-6.92,0,4.712,4.712,0,0,0,0,6.76,5.063,5.063,0,0,0,4.755,1.236,1.408,1.408,0,0,1,1.584.648,1.36,1.36,0,0,1-.228,1.664L33.172,156.771a1.427,1.427,0,0,1-1,.4m-11.9-14.387a1.428,1.428,0,0,1,1,.4l10.9,10.648,8.1-7.918a7.768,7.768,0,0,1-3.7-2,7.429,7.429,0,0,1,0-10.667,7.86,7.86,0,0,1,10.919,0,7.5,7.5,0,0,1,2.051,3.607l8.1-7.915L46.752,118.3a1.359,1.359,0,0,1-.319-1.475,1.407,1.407,0,0,1,1.252-.88,5.414,5.414,0,0,0,3.544-1.489,5.091,5.091,0,0,0,0-7.316l.014-.014a.134.134,0,0,0-.011-.011l-.012.014.012-.014a5.473,5.473,0,0,0-7.51.006A5.16,5.16,0,0,0,42.2,110.59a1.382,1.382,0,0,1-.9,1.222,1.42,1.42,0,0,1-1.511-.31l-10.9-10.648-8.1,7.912a7.765,7.765,0,0,1,3.689,2,7.413,7.413,0,0,1,0,10.667,7.748,7.748,0,0,1-5.449,2.2.013.013,0,0,1-.01,0,7.764,7.764,0,0,1-5.458-2.207,7.486,7.486,0,0,1-2.047-3.61l-8.1,7.918,10.9,10.645a1.358,1.358,0,0,1,.316,1.481,1.416,1.416,0,0,1-1.265.877,5.267,5.267,0,0,0-3.511,1.467,5.09,5.09,0,0,0,0,7.316,5.4,5.4,0,0,0,7.508.019,5.021,5.021,0,0,0,1.5-3.429,1.379,1.379,0,0,1,.895-1.236,1.446,1.446,0,0,1,.518-.1m31.943-36.631h0Z" transform="translate(0 -70.581)" fill="#ae7d7f"/>
    <path id="Path_23558" data-name="Path 23558" d="M128.434,59.7a1.43,1.43,0,0,1-1-.4l-11.9-11.624a1.357,1.357,0,0,1-.313-1.489,1.413,1.413,0,0,1,1.28-.868,5.046,5.046,0,0,0,3.475-1.449,4.89,4.89,0,0,0,0-7.02,5.12,5.12,0,0,0-3.588-1.451h-.007a5.1,5.1,0,0,0-3.59,1.451,4.821,4.821,0,0,0-1.484,3.394,1.382,1.382,0,0,1-.888,1.249,1.433,1.433,0,0,1-1.526-.3l-12.182-11.9a1.359,1.359,0,0,1,0-1.953l8.73-8.53a7.883,7.883,0,0,1-2.886-1.788,7.609,7.609,0,0,1,0-10.926,8.034,8.034,0,0,1,11.164.019,7.666,7.666,0,0,1,1.831,2.819l8.731-8.53a1.48,1.48,0,0,1,2,0l10.506,10.265a7.622,7.622,0,0,1,1.9-3.016,8.053,8.053,0,0,1,11.183,0,7.611,7.611,0,0,1,0,10.926,7.848,7.848,0,0,1-3.079,1.861L157.006,30.4a1.359,1.359,0,0,1,0,1.953l-8.876,8.67a7.851,7.851,0,0,1,3.334,1.945,7.6,7.6,0,0,1,.019,10.906,8.052,8.052,0,0,1-11.183,0,7.613,7.613,0,0,1-1.99-3.259l-8.876,8.673a1.43,1.43,0,0,1-1,.4M119.37,47.506l9.064,8.857,10.044-9.814a1.443,1.443,0,0,1,1.634-.259,1.374,1.374,0,0,1,.765,1.435,4.818,4.818,0,0,0,1.422,4.2,5.168,5.168,0,0,0,7.185,0,4.875,4.875,0,0,0-.019-7,5.048,5.048,0,0,0-4.3-1.389,1.456,1.456,0,0,1-1.468-.747,1.358,1.358,0,0,1,.264-1.6l10.044-9.811-11.259-11a1.359,1.359,0,0,1-.28-1.565,1.433,1.433,0,0,1,1.411-.788,5.022,5.022,0,0,0,3.993-1.419,4.89,4.89,0,0,0,0-7.019,5.179,5.179,0,0,0-7.185,0,4.879,4.879,0,0,0-1.451,3.914,1.372,1.372,0,0,1-.813,1.368,1.435,1.435,0,0,1-1.595-.275L125.284,3.319,115.6,12.779a1.44,1.44,0,0,1-1.568.289,1.379,1.379,0,0,1-.843-1.325,4.8,4.8,0,0,0-1.466-3.69,5.16,5.16,0,0,0-7.166-.019,4.888,4.888,0,0,0,0,7.02,5.12,5.12,0,0,0,3.776,1.432,1.378,1.378,0,0,1,1.062,2.355L99.712,28.3l9.348,9.134a7.683,7.683,0,0,1,1.733-2.547,7.937,7.937,0,0,1,5.589-2.26h.011a7.957,7.957,0,0,1,5.583,2.26,7.612,7.612,0,0,1,0,10.926,7.9,7.9,0,0,1-2.607,1.691" transform="translate(-69.07 -0.001)" fill="#ae7d7f"/>
  </g>
</svg>
