<svg id="Group_15" data-name="Group 15" xmlns="http://www.w3.org/2000/svg" xmlns:xlink="http://www.w3.org/1999/xlink" width="126.763" height="150.763" viewBox="0 0 126.763 150.763">
  <defs>
    <clipPath id="clip-path">
      <rect id="Rectangle_35" data-name="Rectangle 35" width="126.763" height="150.763" fill="#ae7d7f" stroke="#ad7d7f" stroke-width="1"/>
    </clipPath>
  </defs>
  <g id="Group_14" data-name="Group 14" clip-path="url(#clip-path)">
    <path id="Path_23544" data-name="Path 23544" d="M21.98,65.375a10.81,10.81,0,1,0-10.81,10.81,10.822,10.822,0,0,0,10.81-10.81m-2.954,0a7.856,7.856,0,1,1-7.856-7.855,7.865,7.865,0,0,1,7.856,7.855" transform="translate(-0.037 -5.659)" fill="#ae7d7f" stroke="#ad7d7f" stroke-width="1"/>
    <path id="Path_23545" data-name="Path 23545" d="M138.57,65.375a10.81,10.81,0,1,0-10.809,10.81,10.821,10.821,0,0,0,10.809-10.81m-2.954,0a7.856,7.856,0,1,1-7.855-7.855,7.865,7.865,0,0,1,7.855,7.855" transform="translate(-12.128 -5.659)" fill="#ae7d7f" stroke="#ad7d7f" stroke-width="1"/>
    <path id="Path_23546" data-name="Path 23546" d="M58.588,154.9a10.81,10.81,0,1,0,10.81-10.81,10.822,10.822,0,0,0-10.81,10.81m2.954,0A7.856,7.856,0,1,1,69.4,162.75a7.865,7.865,0,0,1-7.856-7.855" transform="translate(-6.076 -14.942)" fill="#ae7d7f" stroke="#ad7d7f" stroke-width="1"/>
    <path id="Path_23547" data-name="Path 23547" d="M6.656,109.486a62.569,62.569,0,0,0,17.956,7.628A70.845,70.845,0,0,0,42.461,119a153.951,153.951,0,0,0,19.531-1.336l1.387-.2,1.387.2A153.992,153.992,0,0,0,84.3,119h0a70.851,70.851,0,0,0,17.852-1.887,62.557,62.557,0,0,0,17.954-7.628c5.061-3.376,7.308-6.764,6.495-9.8-.919-3.427-5.55-5.312-13.039-5.312a61.858,61.858,0,0,0-12.476,1.409,15.105,15.105,0,0,0,5.958-11.957,1.477,1.477,0,0,0-2.954,0c0,7.512-7.126,12.747-13.523,12.747a10.3,10.3,0,0,1-7.928-3.48c-2.394-2.718-3.659-6.953-3.659-12.249V55.412c0-5.4-1.6-9.621-4.757-12.558a17.572,17.572,0,0,0-10.966-4.261V33.139C70.932,32.066,76.9,22.838,76.9,15.116a15.118,15.118,0,0,0-30.236,0c0,7.723,5.965,16.952,13.641,18.023V38.58c-2.434.091-7.42.739-11.218,4.274-3.155,2.938-4.756,7.162-4.756,12.558V80.849c0,9.849-4.332,15.729-11.587,15.729-6.4,0-13.522-5.235-13.522-12.747a1.478,1.478,0,0,0-2.955,0,14.965,14.965,0,0,0,5.043,11.178,56.537,56.537,0,0,0-8.109-.63c-7.49,0-12.12,1.887-13.035,5.314-.814,3.03,1.431,6.417,6.493,9.794m55.123-79.2c-6.551,0-12.164-8.343-12.164-15.173a12.164,12.164,0,0,1,24.327,0c0,6.831-5.613,15.173-12.164,15.173M89.356,99.481c-12.381,5.43-24.674,15.075-25.291,15.562l-.685.54-.124-.1V41.557a14.666,14.666,0,0,1,8.971,3.476c2.52,2.355,3.8,5.847,3.8,10.379V80.849c0,12.987,6.677,18.091,13.332,18.632m-20.549,15.7c5.6-4.083,18.258-12.706,28.676-15.5a64.576,64.576,0,0,1,16.079-2.35c6.9,0,9.8,1.682,10.186,3.124.428,1.6-1.6,4.114-5.281,6.573a59.586,59.586,0,0,1-17.079,7.231A67.97,67.97,0,0,1,84.3,116.046h0a150.671,150.671,0,0,1-15.492-.869m-8.5-1.95C55.894,109.967,46.1,103.121,36.42,99.059c5.742-1.513,10.862-6.838,10.862-18.21V55.412c0-4.542,1.284-8.039,3.815-10.394,3.047-2.836,7.17-3.386,9.2-3.477ZM3.017,100.456C3.4,99.013,6.3,97.333,13.2,97.333a64.619,64.619,0,0,1,16.081,2.35c10.423,2.792,23.072,11.413,28.674,15.5a150.674,150.674,0,0,1-15.493.869,67.959,67.959,0,0,1-17.085-1.786A59.571,59.571,0,0,1,8.3,107.029c-3.686-2.458-5.708-4.976-5.279-6.573" transform="translate(0 0)" fill="#ae7d7f" stroke="#ad7d7f" stroke-width="1"/>
  </g>
</svg>
