<svg xmlns="http://www.w3.org/2000/svg" xmlns:xlink="http://www.w3.org/1999/xlink" width="102.639" height="135.477" viewBox="0 0 102.639 135.477">
  <defs>
    <clipPath id="clip-path">
      <rect id="Rectangle_36" data-name="Rectangle 36" width="102.639" height="135.477" fill="#ae7d7f" stroke="#ae7d7f" stroke-width="1"/>
    </clipPath>
  </defs>
  <g id="Group_17" data-name="Group 17" transform="translate(-27 30)">
    <g id="Group_16" data-name="Group 16" transform="translate(27 -30)" clip-path="url(#clip-path)">
      <path id="Path_23548" data-name="Path 23548" d="M22.062,69.473A11.031,11.031,0,1,0,11.031,80.5,11.044,11.044,0,0,0,22.062,69.473m-18.846,0a7.815,7.815,0,1,1,7.815,7.814,7.824,7.824,0,0,1-7.815-7.814" transform="translate(0 -7.512)" fill="#ae7d7f" stroke="#ae7d7f" stroke-width="1"/>
      <path id="Path_23549" data-name="Path 23549" d="M87.15,110.328H53.433V57.9a8.464,8.464,0,1,1,16.928,0V91.135a11.68,11.68,0,0,0,23.36,0V80.427H90.505V91.135a8.464,8.464,0,0,1-16.929,0V57.9a11.664,11.664,0,0,0-20.144-8.025V36.405c8.588-1.128,15.044-11.1,15.044-19.753a16.652,16.652,0,0,0-33.3,0c0,8.652,6.456,18.626,15.044,19.753V49.871A11.665,11.665,0,0,0,30.072,57.9V91.135a8.464,8.464,0,0,1-16.928,0V80.427H9.928V91.135a11.68,11.68,0,0,0,23.359,0V57.9a8.464,8.464,0,0,1,16.929,0v52.432H16.5a12.574,12.574,0,0,0,0,25.149H45.407v-3.216H16.5a9.359,9.359,0,0,1,0-18.717H87.15a9.359,9.359,0,0,1,0,18.717H58.981v3.216H87.15a12.574,12.574,0,0,0,0-25.149M38.389,16.652a13.436,13.436,0,0,1,26.872,0c0,7.493-6.2,16.647-13.436,16.647S38.389,24.145,38.389,16.652" transform="translate(-0.505)" fill="#ae7d7f" stroke="#ae7d7f" stroke-width="1"/>
      <path id="Path_23550" data-name="Path 23550" d="M103.494,58.442a11.031,11.031,0,1,0,11.03,11.032,11.044,11.044,0,0,0-11.03-11.032m0,18.846a7.815,7.815,0,1,1,7.814-7.814,7.824,7.824,0,0,1-7.814,7.814" transform="translate(-11.885 -7.512)" fill="#ae7d7f" stroke="#ae7d7f" stroke-width="1"/>
    </g>
  </g>
</svg>
